<svg version="1.1" id="Layer_1" xmlns="http://www.w3.org/2000/svg" xmlns:xlink="http://www.w3.org/1999/xlink" x="0px" y="0px"
	 width="100%" viewBox="0 0 64 64" enable-background="new 0 0 64 64" xml:space="preserve">
<path fill="#7289DA" opacity="1.000000" stroke="none" 
	d="
M38.000004,65.000000 
	C25.357141,65.000000 13.214283,65.000000 1.071424,65.000000 
	C1.047616,64.857468 1.002971,64.714935 1.002950,64.572403 
	C0.999859,43.447155 1.000000,22.321907 1.000000,1.000000 
	C11.579430,1.000000 22.160076,1.000000 32.740723,1.000000 
	C43.386517,1.000000 54.032307,1.000000 64.839050,1.000000 
	C64.839050,22.332355 64.839050,43.666069 64.839050,65.000000 
	C56.132076,65.000000 47.316044,65.000000 38.000004,65.000000 
M10.349777,14.191665 
	C6.242463,16.228325 8.628505,18.754179 10.259915,20.544010 
	C13.458523,24.053223 17.083330,27.173958 20.789995,30.701204 
	C17.484791,34.522472 13.924011,38.182076 10.913927,42.249241 
	C7.967330,46.230629 9.003731,48.360165 13.764539,48.891071 
	C18.209827,49.386787 22.709246,50.108742 27.134565,49.854855 
	C30.920633,49.637642 37.671982,52.285637 37.769066,47.247448 
	C37.855568,42.758595 31.159369,45.604416 27.533508,45.114910 
	C23.728544,44.601223 19.800396,44.999985 15.926082,44.999985 
	C15.810123,44.513680 15.694164,44.027378 15.578206,43.541073 
	C18.210087,40.447090 20.988693,37.464428 23.440022,34.233456 
	C27.274242,29.179764 26.864365,28.108971 21.347673,24.651564 
	C18.943016,23.144524 16.874462,21.101192 14.653267,19.301416 
	C14.847670,18.893309 15.042071,18.485201 15.236473,18.077091 
	C16.987291,18.180918 18.739218,18.268978 20.488667,18.392258 
	C23.132202,18.578539 25.822989,19.179857 28.399853,18.856640 
	C30.209078,18.629707 31.862082,17.157310 33.584846,16.241083 
	C31.949707,15.496039 30.338634,14.179359 28.675077,14.109325 
	C22.857853,13.864423 17.022512,14.049836 10.349777,14.191665 
M47.746979,19.877499 
	C48.522739,24.582922 49.134781,29.324953 50.173817,33.971504 
	C50.486393,35.369331 51.986984,36.501503 52.943348,37.755371 
	C53.573277,36.314472 54.891727,34.779942 54.710777,33.449314 
	C54.024456,28.402483 53.037106,23.373671 51.754089,18.444378 
	C51.350731,16.894682 49.665913,15.678532 48.567616,14.309718 
	C48.212296,15.903134 47.856976,17.496552 47.746979,19.877499 
M54.838779,53.148876 
	C57.561981,52.408279 59.661114,50.869583 58.456135,47.878647 
	C57.958164,46.642601 55.319286,45.072193 54.413715,45.454262 
	C52.695366,46.179253 51.524624,48.202168 50.126423,49.685955 
	C51.465179,50.918583 52.803940,52.151211 54.838779,53.148876 
z"/>
<path fill="#9747FE" opacity="1.000000" stroke="none" 
	d="
M10.771915,14.131721 
	C17.022512,14.049836 22.857853,13.864423 28.675077,14.109325 
	C30.338634,14.179359 31.949707,15.496039 33.584846,16.241083 
	C31.862082,17.157310 30.209078,18.629707 28.399853,18.856640 
	C25.822989,19.179857 23.132202,18.578539 20.488667,18.392258 
	C18.739218,18.268978 16.987291,18.180918 15.236473,18.077091 
	C15.042071,18.485201 14.847670,18.893309 14.653267,19.301416 
	C16.874462,21.101192 18.943016,23.144524 21.347673,24.651564 
	C26.864365,28.108971 27.274242,29.179764 23.440022,34.233456 
	C20.988693,37.464428 18.210087,40.447090 15.578206,43.541073 
	C15.694164,44.027378 15.810123,44.513680 15.926082,44.999985 
	C19.800396,44.999985 23.728544,44.601223 27.533508,45.114910 
	C31.159369,45.604416 37.855568,42.758595 37.769066,47.247448 
	C37.671982,52.285637 30.920633,49.637642 27.134565,49.854855 
	C22.709246,50.108742 18.209827,49.386787 13.764539,48.891071 
	C9.003731,48.360165 7.967330,46.230629 10.913927,42.249241 
	C13.924011,38.182076 17.484791,34.522472 20.789995,30.701204 
	C17.083330,27.173958 13.458523,24.053223 10.259915,20.544010 
	C8.628505,18.754179 6.242463,16.228325 10.771915,14.131721 
z"/>
<path fill="#9748FE" opacity="1.000000" stroke="none" 
	d="
M47.624313,19.483734 
	C47.856976,17.496552 48.212296,15.903134 48.567619,14.309718 
	C49.665913,15.678532 51.350731,16.894682 51.754089,18.444378 
	C53.037106,23.373671 54.024456,28.402483 54.710777,33.449314 
	C54.891727,34.779942 53.573277,36.314472 52.943348,37.755371 
	C51.986984,36.501503 50.486393,35.369331 50.173817,33.971504 
	C49.134781,29.324953 48.522739,24.582922 47.624313,19.483734 
z"/>
<path fill="#9649FE" opacity="1.000000" stroke="none" 
	d="
M54.490738,53.266357 
	C52.803940,52.151211 51.465179,50.918583 50.126423,49.685955 
	C51.524624,48.202168 52.695366,46.179253 54.413715,45.454262 
	C55.319286,45.072193 57.958164,46.642601 58.456135,47.878647 
	C59.661114,50.869583 57.561981,52.408279 54.490738,53.266357 
z"/>
</svg>